<?xml version="1.0" encoding="UTF-8" standalone="no"?>
<!DOCTYPE svg PUBLIC "-//W3C//DTD SVG 1.1//EN"
 "http://www.w3.org/Graphics/SVG/1.1/DTD/svg11.dtd">
<!-- Generated by graphviz version 9.0.0 (20230911.1827)
 -->
<!-- Pages: 1 -->
<svg width="1781pt" height="265pt"
 viewBox="0.00 0.00 1781.00 265.00" xmlns="http://www.w3.org/2000/svg" xmlns:xlink="http://www.w3.org/1999/xlink">
<g id="graph0" class="graph" transform="scale(1 1) rotate(0) translate(4 261)">
<polygon fill="white" stroke="none" points="-4,4 -4,-261 1777,-261 1777,4 -4,4"/>
<!-- 2022969928208 -->
<g id="node1" class="node">
<title>2022969928208</title>
<polygon fill="none" stroke="black" points="649.5,-220.5 649.5,-256.5 848.25,-256.5 848.25,-220.5 649.5,-220.5"/>
<text text-anchor="middle" x="667.62" y="-233.2" font-family="Times New Roman,serif" font-size="14.00">x21</text>
<polyline fill="none" stroke="black" points="685.75,-220.75 685.75,-256.5"/>
<text text-anchor="middle" x="726" y="-233.2" font-family="Times New Roman,serif" font-size="14.00">data 0.2266</text>
<polyline fill="none" stroke="black" points="766.25,-220.75 766.25,-256.5"/>
<text text-anchor="middle" x="807.25" y="-233.2" font-family="Times New Roman,serif" font-size="14.00">grad 0.0000</text>
</g>
<!-- 2022969926544* -->
<g id="node14" class="node">
<title>2022969926544*</title>
<ellipse fill="none" stroke="black" cx="911.25" cy="-183.5" rx="27" ry="18"/>
<text text-anchor="middle" x="911.25" y="-178.07" font-family="Times New Roman,serif" font-size="14.00">*</text>
</g>
<!-- 2022969928208&#45;&gt;2022969926544* -->
<g id="edge16" class="edge">
<title>2022969928208&#45;&gt;2022969926544*</title>
<path fill="none" stroke="black" d="M822.28,-220.02C831.09,-217.36 839.92,-214.5 848.25,-211.5 858.34,-207.86 869.07,-203.28 878.73,-198.88"/>
<polygon fill="black" stroke="black" points="880.12,-202.1 887.7,-194.7 877.16,-195.75 880.12,-202.1"/>
</g>
<!-- 2022969930768 -->
<g id="node2" class="node">
<title>2022969930768</title>
<polygon fill="none" stroke="black" points="657.75,-110.5 657.75,-146.5 840,-146.5 840,-110.5 657.75,-110.5"/>
<text text-anchor="middle" x="667.62" y="-123.2" font-family="Times New Roman,serif" font-size="14.00"> </text>
<polyline fill="none" stroke="black" points="677.5,-110.75 677.5,-146.5"/>
<text text-anchor="middle" x="717.75" y="-123.2" font-family="Times New Roman,serif" font-size="14.00">data 0.0000</text>
<polyline fill="none" stroke="black" points="758,-110.75 758,-146.5"/>
<text text-anchor="middle" x="799" y="-123.2" font-family="Times New Roman,serif" font-size="14.00">grad 2.3902</text>
</g>
<!-- 2022969924944+ -->
<g id="node18" class="node">
<title>2022969924944+</title>
<ellipse fill="none" stroke="black" cx="911.25" cy="-128.5" rx="27" ry="18"/>
<text text-anchor="middle" x="911.25" y="-123.08" font-family="Times New Roman,serif" font-size="14.00">+</text>
</g>
<!-- 2022969930768&#45;&gt;2022969924944+ -->
<g id="edge10" class="edge">
<title>2022969930768&#45;&gt;2022969924944+</title>
<path fill="none" stroke="black" d="M840.37,-128.5C851.69,-128.5 862.72,-128.5 872.56,-128.5"/>
<polygon fill="black" stroke="black" points="872.39,-132 882.39,-128.5 872.39,-125 872.39,-132"/>
</g>
<!-- 2022969930768* -->
<g id="node3" class="node">
<title>2022969930768*</title>
<ellipse fill="none" stroke="black" cx="586.5" cy="-128.5" rx="27" ry="18"/>
<text text-anchor="middle" x="586.5" y="-123.08" font-family="Times New Roman,serif" font-size="14.00">*</text>
</g>
<!-- 2022969930768*&#45;&gt;2022969930768 -->
<g id="edge1" class="edge">
<title>2022969930768*&#45;&gt;2022969930768</title>
<path fill="none" stroke="black" d="M613.98,-128.5C623.29,-128.5 634.38,-128.5 646.13,-128.5"/>
<polygon fill="black" stroke="black" points="646.06,-132 656.06,-128.5 646.06,-125 646.06,-132"/>
</g>
<!-- 2022969926672 -->
<g id="node4" class="node">
<title>2022969926672</title>
<polygon fill="none" stroke="black" points="324.75,-165.5 324.75,-201.5 523.5,-201.5 523.5,-165.5 324.75,-165.5"/>
<text text-anchor="middle" x="342.88" y="-178.2" font-family="Times New Roman,serif" font-size="14.00">x11</text>
<polyline fill="none" stroke="black" points="361,-165.75 361,-201.5"/>
<text text-anchor="middle" x="401.25" y="-178.2" font-family="Times New Roman,serif" font-size="14.00">data 1.7843</text>
<polyline fill="none" stroke="black" points="441.5,-165.75 441.5,-201.5"/>
<text text-anchor="middle" x="482.5" y="-178.2" font-family="Times New Roman,serif" font-size="14.00">grad 0.0000</text>
</g>
<!-- 2022969926672&#45;&gt;2022969930768* -->
<g id="edge15" class="edge">
<title>2022969926672&#45;&gt;2022969930768*</title>
<path fill="none" stroke="black" d="M494.3,-165.07C504.17,-162.08 514.14,-158.85 523.5,-155.5 533.46,-151.93 544.09,-147.53 553.68,-143.33"/>
<polygon fill="black" stroke="black" points="554.9,-146.61 562.6,-139.33 552.04,-140.23 554.9,-146.61"/>
</g>
<!-- 2022969929232 -->
<g id="node5" class="node">
<title>2022969929232</title>
<polygon fill="none" stroke="black" points="328.12,-110.5 328.12,-146.5 520.12,-146.5 520.12,-110.5 328.12,-110.5"/>
<text text-anchor="middle" x="342.88" y="-123.2" font-family="Times New Roman,serif" font-size="14.00">x1</text>
<polyline fill="none" stroke="black" points="357.62,-110.75 357.62,-146.5"/>
<text text-anchor="middle" x="397.88" y="-123.2" font-family="Times New Roman,serif" font-size="14.00">data 0.0000</text>
<polyline fill="none" stroke="black" points="438.12,-110.75 438.12,-146.5"/>
<text text-anchor="middle" x="479.12" y="-123.2" font-family="Times New Roman,serif" font-size="14.00">grad 4.2648</text>
</g>
<!-- 2022969929232&#45;&gt;2022969930768* -->
<g id="edge19" class="edge">
<title>2022969929232&#45;&gt;2022969930768*</title>
<path fill="none" stroke="black" d="M520.27,-128.5C529.99,-128.5 539.4,-128.5 547.92,-128.5"/>
<polygon fill="black" stroke="black" points="547.77,-132 557.77,-128.5 547.77,-125 547.77,-132"/>
</g>
<!-- 2022969929296 -->
<g id="node6" class="node">
<title>2022969929296</title>
<polygon fill="none" stroke="black" points="1282.5,-137.5 1282.5,-173.5 1464.75,-173.5 1464.75,-137.5 1282.5,-137.5"/>
<text text-anchor="middle" x="1292.38" y="-150.2" font-family="Times New Roman,serif" font-size="14.00"> </text>
<polyline fill="none" stroke="black" points="1302.25,-137.75 1302.25,-173.5"/>
<text text-anchor="middle" x="1342.5" y="-150.2" font-family="Times New Roman,serif" font-size="14.00">data 1.1951</text>
<polyline fill="none" stroke="black" points="1382.75,-137.75 1382.75,-173.5"/>
<text text-anchor="middle" x="1423.75" y="-150.2" font-family="Times New Roman,serif" font-size="14.00">grad 2.3902</text>
</g>
<!-- 2025066894992**2 -->
<g id="node10" class="node">
<title>2025066894992**2</title>
<ellipse fill="none" stroke="black" cx="1527.75" cy="-155.5" rx="27" ry="18"/>
<text text-anchor="middle" x="1527.75" y="-150.07" font-family="Times New Roman,serif" font-size="14.00">**2</text>
</g>
<!-- 2022969929296&#45;&gt;2025066894992**2 -->
<g id="edge11" class="edge">
<title>2022969929296&#45;&gt;2025066894992**2</title>
<path fill="none" stroke="black" d="M1464.87,-155.5C1473.26,-155.5 1481.4,-155.5 1488.87,-155.5"/>
<polygon fill="black" stroke="black" points="1488.87,-159 1498.87,-155.5 1488.87,-152 1488.87,-159"/>
</g>
<!-- 2022969929296+ -->
<g id="node7" class="node">
<title>2022969929296+</title>
<ellipse fill="none" stroke="black" cx="1219.5" cy="-155.5" rx="27" ry="18"/>
<text text-anchor="middle" x="1219.5" y="-150.07" font-family="Times New Roman,serif" font-size="14.00">+</text>
</g>
<!-- 2022969929296+&#45;&gt;2022969929296 -->
<g id="edge2" class="edge">
<title>2022969929296+&#45;&gt;2022969929296</title>
<path fill="none" stroke="black" d="M1247,-155.5C1254.04,-155.5 1262.09,-155.5 1270.63,-155.5"/>
<polygon fill="black" stroke="black" points="1270.59,-159 1280.59,-155.5 1270.59,-152 1270.59,-159"/>
</g>
<!-- 2022969924176 -->
<g id="node8" class="node">
<title>2022969924176</title>
<polygon fill="none" stroke="black" points="3.38,-83.5 3.38,-119.5 195.38,-119.5 195.38,-83.5 3.38,-83.5"/>
<text text-anchor="middle" x="18.12" y="-96.2" font-family="Times New Roman,serif" font-size="14.00">x0</text>
<polyline fill="none" stroke="black" points="32.88,-83.75 32.88,-119.5"/>
<text text-anchor="middle" x="73.12" y="-96.2" font-family="Times New Roman,serif" font-size="14.00">data 1.0000</text>
<polyline fill="none" stroke="black" points="113.38,-83.75 113.38,-119.5"/>
<text text-anchor="middle" x="154.38" y="-96.2" font-family="Times New Roman,serif" font-size="14.00">grad 2.8565</text>
</g>
<!-- 2022969929424* -->
<g id="node12" class="node">
<title>2022969929424*</title>
<ellipse fill="none" stroke="black" cx="261.75" cy="-73.5" rx="27" ry="18"/>
<text text-anchor="middle" x="261.75" y="-68.08" font-family="Times New Roman,serif" font-size="14.00">*</text>
</g>
<!-- 2022969924176&#45;&gt;2022969929424* -->
<g id="edge8" class="edge">
<title>2022969924176&#45;&gt;2022969929424*</title>
<path fill="none" stroke="black" d="M195.52,-84.89C205.54,-83.14 215.23,-81.45 223.94,-79.93"/>
<polygon fill="black" stroke="black" points="224.42,-83.4 233.67,-78.23 223.22,-76.5 224.42,-83.4"/>
</g>
<!-- 2025066894992 -->
<g id="node9" class="node">
<title>2025066894992</title>
<polygon fill="none" stroke="black" points="1590.75,-137.5 1590.75,-173.5 1773,-173.5 1773,-137.5 1590.75,-137.5"/>
<text text-anchor="middle" x="1600.62" y="-150.2" font-family="Times New Roman,serif" font-size="14.00"> </text>
<polyline fill="none" stroke="black" points="1610.5,-137.75 1610.5,-173.5"/>
<text text-anchor="middle" x="1650.75" y="-150.2" font-family="Times New Roman,serif" font-size="14.00">data 1.4283</text>
<polyline fill="none" stroke="black" points="1691,-137.75 1691,-173.5"/>
<text text-anchor="middle" x="1732" y="-150.2" font-family="Times New Roman,serif" font-size="14.00">grad 1.0000</text>
</g>
<!-- 2025066894992**2&#45;&gt;2025066894992 -->
<g id="edge3" class="edge">
<title>2025066894992**2&#45;&gt;2025066894992</title>
<path fill="none" stroke="black" d="M1555.25,-155.5C1562.29,-155.5 1570.34,-155.5 1578.88,-155.5"/>
<polygon fill="black" stroke="black" points="1578.84,-159 1588.84,-155.5 1578.84,-152 1578.84,-159"/>
</g>
<!-- 2022969929424 -->
<g id="node11" class="node">
<title>2022969929424</title>
<polygon fill="none" stroke="black" points="333,-55.5 333,-91.5 515.25,-91.5 515.25,-55.5 333,-55.5"/>
<text text-anchor="middle" x="342.88" y="-68.2" font-family="Times New Roman,serif" font-size="14.00"> </text>
<polyline fill="none" stroke="black" points="352.75,-55.75 352.75,-91.5"/>
<text text-anchor="middle" x="393" y="-68.2" font-family="Times New Roman,serif" font-size="14.00">data 1.1951</text>
<polyline fill="none" stroke="black" points="433.25,-55.75 433.25,-91.5"/>
<text text-anchor="middle" x="474.25" y="-68.2" font-family="Times New Roman,serif" font-size="14.00">grad 2.3902</text>
</g>
<!-- 2022969930064+ -->
<g id="node20" class="node">
<title>2022969930064+</title>
<ellipse fill="none" stroke="black" cx="586.5" cy="-73.5" rx="27" ry="18"/>
<text text-anchor="middle" x="586.5" y="-68.08" font-family="Times New Roman,serif" font-size="14.00">+</text>
</g>
<!-- 2022969929424&#45;&gt;2022969930064+ -->
<g id="edge13" class="edge">
<title>2022969929424&#45;&gt;2022969930064+</title>
<path fill="none" stroke="black" d="M515.62,-73.5C526.94,-73.5 537.97,-73.5 547.81,-73.5"/>
<polygon fill="black" stroke="black" points="547.64,-77 557.64,-73.5 547.64,-70 547.64,-77"/>
</g>
<!-- 2022969929424*&#45;&gt;2022969929424 -->
<g id="edge4" class="edge">
<title>2022969929424*&#45;&gt;2022969929424</title>
<path fill="none" stroke="black" d="M289.23,-73.5C298.54,-73.5 309.63,-73.5 321.38,-73.5"/>
<polygon fill="black" stroke="black" points="321.31,-77 331.31,-73.5 321.31,-70 321.31,-77"/>
</g>
<!-- 2022969926544 -->
<g id="node13" class="node">
<title>2022969926544</title>
<polygon fill="none" stroke="black" points="974.25,-165.5 974.25,-201.5 1156.5,-201.5 1156.5,-165.5 974.25,-165.5"/>
<text text-anchor="middle" x="984.12" y="-178.2" font-family="Times New Roman,serif" font-size="14.00"> </text>
<polyline fill="none" stroke="black" points="994,-165.75 994,-201.5"/>
<text text-anchor="middle" x="1034.25" y="-178.2" font-family="Times New Roman,serif" font-size="14.00">data 0.0000</text>
<polyline fill="none" stroke="black" points="1074.5,-165.75 1074.5,-201.5"/>
<text text-anchor="middle" x="1115.5" y="-178.2" font-family="Times New Roman,serif" font-size="14.00">grad 2.3902</text>
</g>
<!-- 2022969926544&#45;&gt;2022969929296+ -->
<g id="edge14" class="edge">
<title>2022969926544&#45;&gt;2022969929296+</title>
<path fill="none" stroke="black" d="M1156.62,-166.89C1165.46,-165.26 1174.03,-163.68 1181.84,-162.25"/>
<polygon fill="black" stroke="black" points="1182.35,-165.71 1191.55,-160.46 1181.08,-158.83 1182.35,-165.71"/>
</g>
<!-- 2022969926544*&#45;&gt;2022969926544 -->
<g id="edge5" class="edge">
<title>2022969926544*&#45;&gt;2022969926544</title>
<path fill="none" stroke="black" d="M938.75,-183.5C945.79,-183.5 953.84,-183.5 962.38,-183.5"/>
<polygon fill="black" stroke="black" points="962.34,-187 972.34,-183.5 962.34,-180 962.34,-187"/>
</g>
<!-- 2022969925904 -->
<g id="node15" class="node">
<title>2022969925904</title>
<polygon fill="none" stroke="black" points="0,-28.5 0,-64.5 198.75,-64.5 198.75,-28.5 0,-28.5"/>
<text text-anchor="middle" x="18.12" y="-41.2" font-family="Times New Roman,serif" font-size="14.00">x01</text>
<polyline fill="none" stroke="black" points="36.25,-28.75 36.25,-64.5"/>
<text text-anchor="middle" x="76.5" y="-41.2" font-family="Times New Roman,serif" font-size="14.00">data 1.1951</text>
<polyline fill="none" stroke="black" points="116.75,-28.75 116.75,-64.5"/>
<text text-anchor="middle" x="157.75" y="-41.2" font-family="Times New Roman,serif" font-size="14.00">grad 2.3902</text>
</g>
<!-- 2022969925904&#45;&gt;2022969929424* -->
<g id="edge20" class="edge">
<title>2022969925904&#45;&gt;2022969929424*</title>
<path fill="none" stroke="black" d="M199.2,-63.14C207.92,-64.61 216.32,-66.02 223.97,-67.31"/>
<polygon fill="black" stroke="black" points="223.37,-70.76 233.81,-68.96 224.53,-63.85 223.37,-70.76"/>
</g>
<!-- 2022969928592 -->
<g id="node16" class="node">
<title>2022969928592</title>
<polygon fill="none" stroke="black" points="333,-0.5 333,-36.5 515.25,-36.5 515.25,-0.5 333,-0.5"/>
<text text-anchor="middle" x="342.88" y="-13.2" font-family="Times New Roman,serif" font-size="14.00"> </text>
<polyline fill="none" stroke="black" points="352.75,-0.75 352.75,-36.5"/>
<text text-anchor="middle" x="393" y="-13.2" font-family="Times New Roman,serif" font-size="14.00">data 0.0000</text>
<polyline fill="none" stroke="black" points="433.25,-0.75 433.25,-36.5"/>
<text text-anchor="middle" x="474.25" y="-13.2" font-family="Times New Roman,serif" font-size="14.00">grad 2.3902</text>
</g>
<!-- 2022969928592&#45;&gt;2022969930064+ -->
<g id="edge12" class="edge">
<title>2022969928592&#45;&gt;2022969930064+</title>
<path fill="none" stroke="black" d="M497.53,-36.98C506.34,-39.64 515.17,-42.5 523.5,-45.5 533.59,-49.14 544.32,-53.72 553.98,-58.12"/>
<polygon fill="black" stroke="black" points="552.41,-61.25 562.95,-62.3 555.37,-54.9 552.41,-61.25"/>
</g>
<!-- 2022969924944 -->
<g id="node17" class="node">
<title>2022969924944</title>
<polygon fill="none" stroke="black" points="974.25,-110.5 974.25,-146.5 1156.5,-146.5 1156.5,-110.5 974.25,-110.5"/>
<text text-anchor="middle" x="984.12" y="-123.2" font-family="Times New Roman,serif" font-size="14.00"> </text>
<polyline fill="none" stroke="black" points="994,-110.75 994,-146.5"/>
<text text-anchor="middle" x="1034.25" y="-123.2" font-family="Times New Roman,serif" font-size="14.00">data 1.1951</text>
<polyline fill="none" stroke="black" points="1074.5,-110.75 1074.5,-146.5"/>
<text text-anchor="middle" x="1115.5" y="-123.2" font-family="Times New Roman,serif" font-size="14.00">grad 2.3902</text>
</g>
<!-- 2022969924944&#45;&gt;2022969929296+ -->
<g id="edge18" class="edge">
<title>2022969924944&#45;&gt;2022969929296+</title>
<path fill="none" stroke="black" d="M1156.62,-144.52C1165.46,-146.09 1174.03,-147.61 1181.84,-148.99"/>
<polygon fill="black" stroke="black" points="1181.09,-152.41 1191.55,-150.72 1182.31,-145.52 1181.09,-152.41"/>
</g>
<!-- 2022969924944+&#45;&gt;2022969924944 -->
<g id="edge6" class="edge">
<title>2022969924944+&#45;&gt;2022969924944</title>
<path fill="none" stroke="black" d="M938.75,-128.5C945.79,-128.5 953.84,-128.5 962.38,-128.5"/>
<polygon fill="black" stroke="black" points="962.34,-132 972.34,-128.5 962.34,-125 962.34,-132"/>
</g>
<!-- 2022969930064 -->
<g id="node19" class="node">
<title>2022969930064</title>
<polygon fill="none" stroke="black" points="657.75,-55.5 657.75,-91.5 840,-91.5 840,-55.5 657.75,-55.5"/>
<text text-anchor="middle" x="667.62" y="-68.2" font-family="Times New Roman,serif" font-size="14.00"> </text>
<polyline fill="none" stroke="black" points="677.5,-55.75 677.5,-91.5"/>
<text text-anchor="middle" x="717.75" y="-68.2" font-family="Times New Roman,serif" font-size="14.00">data 1.1951</text>
<polyline fill="none" stroke="black" points="758,-55.75 758,-91.5"/>
<text text-anchor="middle" x="799" y="-68.2" font-family="Times New Roman,serif" font-size="14.00">grad 2.3902</text>
</g>
<!-- 2022969930064&#45;&gt;2022969924944+ -->
<g id="edge9" class="edge">
<title>2022969930064&#45;&gt;2022969924944+</title>
<path fill="none" stroke="black" d="M822.28,-91.98C831.09,-94.64 839.92,-97.5 848.25,-100.5 858.34,-104.14 869.07,-108.72 878.73,-113.12"/>
<polygon fill="black" stroke="black" points="877.16,-116.25 887.7,-117.3 880.12,-109.9 877.16,-116.25"/>
</g>
<!-- 2022969930064+&#45;&gt;2022969930064 -->
<g id="edge7" class="edge">
<title>2022969930064+&#45;&gt;2022969930064</title>
<path fill="none" stroke="black" d="M613.98,-73.5C623.29,-73.5 634.38,-73.5 646.13,-73.5"/>
<polygon fill="black" stroke="black" points="646.06,-77 656.06,-73.5 646.06,-70 646.06,-77"/>
</g>
<!-- 2022969925520 -->
<g id="node21" class="node">
<title>2022969925520</title>
<polygon fill="none" stroke="black" points="652.88,-165.5 652.88,-201.5 844.88,-201.5 844.88,-165.5 652.88,-165.5"/>
<text text-anchor="middle" x="667.62" y="-178.2" font-family="Times New Roman,serif" font-size="14.00">x2</text>
<polyline fill="none" stroke="black" points="682.38,-165.75 682.38,-201.5"/>
<text text-anchor="middle" x="722.62" y="-178.2" font-family="Times New Roman,serif" font-size="14.00">data 0.0000</text>
<polyline fill="none" stroke="black" points="762.88,-165.75 762.88,-201.5"/>
<text text-anchor="middle" x="803.88" y="-178.2" font-family="Times New Roman,serif" font-size="14.00">grad 0.5416</text>
</g>
<!-- 2022969925520&#45;&gt;2022969926544* -->
<g id="edge17" class="edge">
<title>2022969925520&#45;&gt;2022969926544*</title>
<path fill="none" stroke="black" d="M845.02,-183.5C854.74,-183.5 864.15,-183.5 872.67,-183.5"/>
<polygon fill="black" stroke="black" points="872.52,-187 882.52,-183.5 872.52,-180 872.52,-187"/>
</g>
</g>
</svg>
