<?xml version="1.0" encoding="UTF-8" standalone="no"?>
<!DOCTYPE svg PUBLIC "-//W3C//DTD SVG 1.1//EN"
 "http://www.w3.org/Graphics/SVG/1.1/DTD/svg11.dtd">
<!-- Generated by graphviz version 9.0.0 (20230911.1827)
 -->
<!-- Pages: 1 -->
<svg width="278pt" height="98pt"
 viewBox="0.00 0.00 278.15 98.00" xmlns="http://www.w3.org/2000/svg" xmlns:xlink="http://www.w3.org/1999/xlink">
<g id="graph0" class="graph" transform="scale(1 1) rotate(0) translate(4 94)">
<polygon fill="white" stroke="none" points="-4,4 -4,-94 274.15,-94 274.15,4 -4,4"/>
<!-- Start -->
<g id="node1" class="node">
<title>Start</title>
<polygon fill="none" stroke="black" points="0,-27 0,-63 54,-63 54,-27 0,-27"/>
<text text-anchor="middle" x="27" y="-39.7" font-family="Times New Roman,serif" font-size="14.00">Start</text>
</g>
<!-- Process1 -->
<g id="node2" class="node">
<title>Process1</title>
<ellipse fill="none" stroke="black" cx="135.08" cy="-72" rx="45.08" ry="18"/>
<text text-anchor="middle" x="135.08" y="-66.58" font-family="Times New Roman,serif" font-size="14.00">Process1</text>
</g>
<!-- Start&#45;&gt;Process1 -->
<g id="edge1" class="edge">
<title>Start&#45;&gt;Process1</title>
<path fill="none" stroke="black" d="M54.49,-51.74C63.88,-54.13 74.75,-56.9 85.39,-59.61"/>
<polygon fill="black" stroke="black" points="84.3,-62.94 94.85,-62.02 86.03,-56.16 84.3,-62.94"/>
</g>
<!-- Process2 -->
<g id="node3" class="node">
<title>Process2</title>
<ellipse fill="none" stroke="black" cx="135.08" cy="-18" rx="45.08" ry="18"/>
<text text-anchor="middle" x="135.08" y="-12.57" font-family="Times New Roman,serif" font-size="14.00">Process2</text>
</g>
<!-- Start&#45;&gt;Process2 -->
<g id="edge2" class="edge">
<title>Start&#45;&gt;Process2</title>
<path fill="none" stroke="black" d="M54.49,-38.26C63.88,-35.87 74.75,-33.1 85.39,-30.39"/>
<polygon fill="black" stroke="black" points="86.03,-33.84 94.85,-27.98 84.3,-27.06 86.03,-33.84"/>
</g>
<!-- End -->
<g id="node4" class="node">
<title>End</title>
<ellipse fill="none" stroke="black" cx="243.15" cy="-45" rx="27" ry="18"/>
<text text-anchor="middle" x="243.15" y="-39.58" font-family="Times New Roman,serif" font-size="14.00">End</text>
</g>
<!-- Process1&#45;&gt;End -->
<g id="edge3" class="edge">
<title>Process1&#45;&gt;End</title>
<path fill="none" stroke="black" d="M173.77,-62.4C184.44,-59.69 196.02,-56.74 206.56,-54.06"/>
<polygon fill="black" stroke="black" points="207.21,-57.51 216.04,-51.65 205.48,-50.72 207.21,-57.51"/>
</g>
<!-- Process2&#45;&gt;End -->
<g id="edge4" class="edge">
<title>Process2&#45;&gt;End</title>
<path fill="none" stroke="black" d="M173.77,-27.6C184.44,-30.31 196.02,-33.26 206.56,-35.94"/>
<polygon fill="black" stroke="black" points="205.48,-39.28 216.04,-38.35 207.21,-32.49 205.48,-39.28"/>
</g>
</g>
</svg>
